<?xml version="1.0" encoding="utf-8"?>
<!-- Generator: Adobe Illustrator 25.4.1, SVG Export Plug-In . SVG Version: 6.00 Build 0)  -->
<svg version="1.1" id="Layer_1" xmlns="http://www.w3.org/2000/svg" xmlns:xlink="http://www.w3.org/1999/xlink" x="0px" y="0px"
	 width="326.8px" height="311.8px" viewBox="0 0 326.8 311.8" style="enable-background:new 0 0 326.8 311.8;" xml:space="preserve"
	>
<style type="text/css">
	.st0{fill:#49226B;}
	.st1{fill:#FFFFFF;}
</style>
<path id="XMLID_226_" class="st0" d="M125.6,72.9h-0.2c-17,0-32.5,15.2-33.4,32.6c0.1,0.5,0.3,1.1,0.4,1.6c0.2,1,0.4,2.2,0.9,2.7
	c0.6,0.7,2.1,1.2,3.2,1.2c0.1,0,0.2,0,0.3,0c1.3-0.1,2-0.8,2.4-4.2c2.2-16.8,10-24.6,26.9-27.2c3.9-0.6,4.1-2,3.9-3.8
	C129.8,73.9,129.1,72.9,125.6,72.9z"/>
<path id="XMLID_131_" class="st0" d="M251.1,140.8c-2.3-0.3-4.8-0.5-6.4,1.5c-0.5,0.6-0.7,1.2-0.6,2c0.3,2,1.1,2.9,5,3
	c9.9,0.1,15,4.6,16.6,14.7c0.7,4.3,2.6,4.3,3.5,4.3c0.1,0,0.2,0,0.3,0c1.2-0.1,3.3,0,3.1-4.9c-0.2-6.1-3.4-11.8-8.1-15.6
	c-2.3-1.9-5.1-3.4-8-4.2c-1.5-0.4-2.9-0.5-4.4-0.7C251.9,140.9,251.5,140.8,251.1,140.8z"/>
<path id="XMLID_163_" class="st0" d="M81.2,178.4c-10-1.6-13.6-5.1-15.3-15.3c-0.5-3.1-1.7-3.7-3.6-3.7c-0.1,0-0.2,0-0.2,0
	c-0.7,0-3,0.1-3,4.2c0,10.8,10.3,21.4,21.2,21.7c0.1,0,0.2,0,0.4,0c3.4,0,3.9-1.5,4.1-2.9C85,180.3,84.5,178.9,81.2,178.4z"/>
<g id="XMLID_52_">
	<path fill="#ffffff" id="XMLID_53_" d="M84.9,247.8H73.3v11.8H68v-27.9h5.3v11.4h11.6v-11.4h5.3v27.9h-5.3V247.8z"/>
	<path fill="#ffffff" id="XMLID_55_" d="M111.3,259.6c-1.1,0-2-0.3-2.7-1s-1.1-1.5-1.2-2.6h-0.2c-0.3,1.4-1.1,2.4-2.1,3.1c-1.1,0.7-2.4,1-4,1
		c-2.1,0-3.8-0.6-4.9-1.7s-1.7-2.6-1.7-4.5c0-2.1,0.8-3.7,2.3-4.8c1.5-1,3.7-1.6,6.6-1.6h3.6V246c0-1.2-0.3-2.1-0.9-2.7
		c-0.6-0.6-1.6-1-3-1c-1.2,0-2.2,0.3-2.9,0.8c-0.7,0.5-1.4,1.1-1.9,1.9l-3-2.7c0.8-1.2,1.8-2.2,3.1-2.9s3-1.1,5.1-1.1
		c2.8,0,5,0.6,6.4,1.9c1.5,1.3,2.2,3.1,2.2,5.5v9.8h2.1v4.1L111.3,259.6L111.3,259.6z M102.9,256.4c1.1,0,2.1-0.3,2.9-0.8
		c0.8-0.5,1.2-1.2,1.2-2.2v-2.7h-3.3c-2.7,0-4,0.8-4,2.5v0.7c0,0.8,0.3,1.5,0.8,1.9C101.1,256.2,101.8,256.4,102.9,256.4z"/>
	<path fill="#ffffff" id="XMLID_58_" d="M117.8,259.6v-20.8h5.1v3.5h0.2c0.4-1.1,1.1-2.1,2-2.8c0.9-0.8,2.2-1.1,3.8-1.1c2.2,0,3.8,0.7,5,2.1
		c1.1,1.4,1.7,3.4,1.7,6v13.2h-5.1V247c0-1.5-0.3-2.6-0.8-3.4c-0.5-0.7-1.4-1.1-2.6-1.1c-0.5,0-1,0.1-1.5,0.2s-0.9,0.4-1.3,0.6
		c-0.4,0.3-0.7,0.6-0.9,1c-0.2,0.4-0.4,0.9-0.4,1.5v13.8H117.8z"/>
	<path fill="#ffffff" id="XMLID_60_" d="M153.7,256.1h-0.2c-0.4,1.2-1.1,2.2-2.1,2.9s-2.2,1.1-3.6,1.1c-2.6,0-4.7-0.9-6-2.8
		c-1.4-1.9-2.1-4.6-2.1-8.1s0.7-6.2,2.1-8s3.4-2.8,6-2.8c1.4,0,2.6,0.4,3.6,1.1c1,0.7,1.7,1.7,2.1,2.9h0.2v-12.1h5.1v29.5h-5.1
		V256.1z M149.4,255.9c1.2,0,2.2-0.3,3.1-0.9c0.8-0.6,1.2-1.4,1.2-2.5v-6.6c0-1-0.4-1.8-1.2-2.4c-0.8-0.6-1.9-0.9-3.1-0.9
		c-1.3,0-2.4,0.4-3.2,1.3s-1.2,2.1-1.2,3.6v3.6c0,1.5,0.4,2.7,1.2,3.6C147,255.4,148.1,255.9,149.4,255.9z"/>
	<path fill="#ffffff" id="XMLID_63_" d="M177,238.8h4.8l-8.4,24.6c-0.3,0.7-0.6,1.4-0.9,1.9c-0.3,0.5-0.7,1-1.2,1.3s-1,0.6-1.6,0.8
		c-0.6,0.2-1.4,0.2-2.2,0.2h-3.1v-4.1h3.8l1-2.9l-7.5-21.8h5.1l3.6,11l1.4,5.3h0.2l1.4-5.3L177,238.8z"/>
	<path fill="#ffffff" id="XMLID_65_" d="M202,247.8h-11.6v11.8h-5.3v-27.9h5.3v11.4H202v-11.4h5.3v27.9H202V247.8z" />
	<path fill="#ffffff" id="XMLID_67_" d="M221.4,260.1c-1.5,0-2.8-0.3-4-0.8s-2.2-1.2-3-2.2s-1.5-2.1-1.9-3.5c-0.5-1.3-0.7-2.9-0.7-4.5
		c0-1.7,0.2-3.2,0.7-4.5s1.1-2.5,1.9-3.4c0.8-0.9,1.8-1.7,3-2.2s2.5-0.8,4-0.8s2.8,0.3,4,0.8s2.2,1.2,3.1,2.2
		c0.8,0.9,1.5,2.1,1.9,3.4c0.5,1.3,0.7,2.8,0.7,4.5s-0.2,3.2-0.7,4.5s-1.1,2.5-1.9,3.5c-0.8,1-1.9,1.7-3.1,2.2
		C224.2,259.8,222.9,260.1,221.4,260.1z M221.4,256c1.4,0,2.4-0.4,3.2-1.2s1.2-2,1.2-3.6v-3.9c0-1.6-0.4-2.8-1.2-3.6
		s-1.8-1.2-3.2-1.2c-1.3,0-2.4,0.4-3.2,1.2s-1.2,2-1.2,3.6v3.9c0,1.6,0.4,2.8,1.2,3.6S220.1,256,221.4,256z"/>
	<path fill="#ffffff" id="XMLID_70_" d="M241.8,260.1c-2,0-3.7-0.3-5-1c-1.4-0.7-2.6-1.6-3.6-2.8l3.1-3c0.8,0.9,1.6,1.6,2.5,2.1s2,0.8,3.2,0.8
		s2.1-0.2,2.7-0.6c0.5-0.4,0.8-1,0.8-1.8c0-0.6-0.2-1.1-0.6-1.5s-1-0.6-2-0.7l-2.1-0.3c-2.3-0.3-4-0.9-5.2-1.9s-1.8-2.5-1.8-4.4
		c0-1,0.2-1.9,0.6-2.7c0.4-0.8,0.9-1.5,1.6-2.1c0.7-0.6,1.5-1,2.5-1.3s2.1-0.5,3.3-0.5c1,0,1.9,0.1,2.7,0.2c0.8,0.1,1.5,0.4,2.1,0.6
		c0.6,0.3,1.2,0.6,1.8,1c0.5,0.4,1.1,0.9,1.6,1.4l-3,3c-0.6-0.6-1.3-1.2-2.2-1.6c-0.9-0.4-1.8-0.6-2.8-0.6c-1.1,0-1.9,0.2-2.4,0.6
		c-0.5,0.4-0.7,0.9-0.7,1.6c0,0.7,0.2,1.2,0.6,1.6c0.4,0.4,1.1,0.6,2.1,0.8l2.1,0.3c4.5,0.6,6.7,2.7,6.7,6.1c0,1-0.2,1.9-0.6,2.8
		c-0.4,0.8-1,1.6-1.7,2.2s-1.6,1.1-2.7,1.4C244.3,259.9,243.1,260.1,241.8,260.1z"/>
	<path fill="#ffffff" id="XMLID_72_" d="M261.1,259.6c-1.8,0-3.1-0.5-4-1.4s-1.4-2.2-1.4-3.9v-11.4h-3.1v-4.1h1.6c0.8,0,1.3-0.2,1.6-0.5
		c0.3-0.4,0.4-0.9,0.4-1.6v-3.6h4.6v5.7h4.3v4.1h-4.3v12.6h4v4.1H261.1z"/>
</g>
<g id="XMLID_29_">
	<path id="XMLID_30_" class="st0" d="M102,276h5.4c1,0,1.9,0.2,2.7,0.5c0.8,0.3,1.5,0.8,2,1.4c0.6,0.6,1,1.4,1.3,2.4
		s0.5,2.1,0.5,3.4s-0.2,2.4-0.5,3.4s-0.7,1.8-1.3,2.4c-0.6,0.6-1.2,1.1-2,1.4s-1.7,0.5-2.7,0.5H102V276z M107.4,289.2
		c1.1,0,2.1-0.4,2.8-1.1c0.7-0.7,1.1-1.8,1.1-3.2v-2.5c0-1.4-0.4-2.4-1.1-3.2c-0.7-0.7-1.6-1.1-2.8-1.1h-2.9v11h2.9V289.2z"/>
	<path id="XMLID_33_" class="st0" d="M119.1,291.4l-3.6-15.4h2.5l1.6,7.4l1.1,5.1h0.1l1.2-5.1l1.8-7.4h2.8l1.8,7.4l1.2,5.1h0.1
		l1.1-5.1l1.6-7.4h2.4l-3.8,15.4h-2.8l-2-7.9l-1.1-4.7l0,0l-1.2,4.7l-2,7.9H119.1z"/>
	<path id="XMLID_35_" class="st0" d="M141.1,291.6c-0.8,0-1.6-0.1-2.2-0.4s-1.2-0.7-1.6-1.2s-0.8-1.2-1-1.9
		c-0.2-0.7-0.4-1.6-0.4-2.5s0.1-1.7,0.4-2.5c0.2-0.7,0.6-1.4,1-1.9s1-0.9,1.6-1.2c0.6-0.3,1.4-0.4,2.2-0.4s1.6,0.1,2.2,0.4
		c0.6,0.3,1.2,0.7,1.6,1.2s0.7,1.1,1,1.8s0.3,1.4,0.3,2.2v0.9h-7.9v0.4c0,0.9,0.3,1.6,0.8,2.2s1.3,0.8,2.2,0.8
		c0.7,0,1.3-0.2,1.8-0.5s0.9-0.7,1.2-1.2l1.4,1.4c-0.4,0.7-1,1.3-1.8,1.7C143.1,291.4,142.2,291.6,141.1,291.6z M141.1,281.5
		c-0.4,0-0.8,0.1-1.1,0.2s-0.6,0.4-0.9,0.6c-0.2,0.3-0.4,0.6-0.6,0.9c-0.1,0.4-0.2,0.8-0.2,1.2v0.2h5.3v-0.2c0-0.9-0.2-1.6-0.7-2.1
		C142.5,281.8,141.9,281.5,141.1,281.5z"/>
	<path id="XMLID_38_" class="st0" d="M148.8,275.1h2.4v6.7h0.1c0.2-0.7,0.7-1.2,1.2-1.6s1.2-0.6,2-0.6c1.5,0,2.6,0.5,3.4,1.6
		c0.8,1,1.2,2.5,1.2,4.4s-0.4,3.4-1.2,4.4s-1.9,1.6-3.4,1.6c-0.8,0-1.4-0.2-2-0.6s-1-0.9-1.2-1.6h-0.1v1.9h-2.4V275.1z M153.8,289.6
		c0.8,0,1.5-0.3,2-0.8s0.7-1.2,0.7-2.1v-2c0-0.9-0.2-1.6-0.7-2.1s-1.2-0.8-2-0.8c-0.7,0-1.3,0.2-1.8,0.5s-0.7,0.8-0.7,1.4v3.9
		c0,0.6,0.2,1.1,0.7,1.4S153.1,289.6,153.8,289.6z"/>
	<path id="XMLID_42_" class="st0" d="M170.9,290v-4.4h-4v-2h4v-4.4h2.2v4.4h4v2h-4v4.4H170.9z"/>
	<path id="XMLID_45_" class="st0" d="M189.2,291.4v-6L184,276h2.8l3.7,6.8h0.1l3.7-6.8h2.7l-5.3,9.3v6.1H189.2z"/>
	<path id="XMLID_47_" class="st0" d="M202.3,291.6c-0.8,0-1.5-0.1-2.2-0.4s-1.2-0.7-1.7-1.2s-0.8-1.2-1.1-1.9
		c-0.2-0.7-0.4-1.6-0.4-2.5s0.1-1.7,0.4-2.5c0.3-0.7,0.6-1.4,1.1-1.9s1-0.9,1.7-1.2c0.7-0.3,1.4-0.4,2.2-0.4s1.5,0.1,2.2,0.4
		s1.2,0.7,1.7,1.2s0.8,1.2,1.1,1.9c0.2,0.7,0.4,1.6,0.4,2.5s-0.1,1.7-0.4,2.5c-0.3,0.7-0.6,1.4-1.1,1.9s-1,0.9-1.7,1.2
		C203.8,291.5,203.1,291.6,202.3,291.6z M202.3,289.6c0.8,0,1.5-0.3,2-0.8s0.7-1.3,0.7-2.3v-1.9c0-1-0.2-1.8-0.7-2.3s-1.2-0.8-2-0.8
		s-1.5,0.3-2,0.8s-0.7,1.3-0.7,2.3v1.9c0,1,0.2,1.8,0.7,2.3C200.8,289.4,201.5,289.6,202.3,289.6z"/>
	<path id="XMLID_50_" class="st0" d="M217.2,289.5L217.2,289.5c-0.2,0.3-0.3,0.5-0.5,0.8s-0.4,0.5-0.6,0.7s-0.6,0.4-0.9,0.5
		s-0.8,0.2-1.2,0.2c-1.2,0-2.1-0.4-2.8-1.1c-0.7-0.8-1-1.9-1-3.3V280h2.4v7c0,1.8,0.7,2.7,2.2,2.7c0.3,0,0.6,0,0.9-0.1
		c0.3-0.1,0.6-0.2,0.8-0.4c0.2-0.2,0.4-0.4,0.5-0.6s0.2-0.5,0.2-0.9V280h2.4v11.4h-2.4L217.2,289.5L217.2,289.5z"/>
</g>
<g id="XMLID_79_">
	<g id="XMLID_41_">
		<path id="XMLID_44_" d="M146.1,94.3l42.8-76.7c0.8-1.4,2.2-2.2,3.8-2.2h17.4c1.5,0,2.9,0.8,3.7,2l10,15.4c0.9,1.3,0.9,3,0.2,4.4
			l-8.3,15.2c-1.6,2.9,0.5,6.5,3.8,6.5l0,0c1.6,0,3.1-0.9,3.8-2.3l7.9-14.3c0.8-1.4,2.2-2.3,3.8-2.3h19c1.5,0,3,0.8,3.8,2.2
			l9.1,15.5c0.8,1.3,0.8,3,0.1,4.3l-42,77c-0.8,1.4-2.2,2.3-3.8,2.3h-18.3c-1.5,0-2.9-0.8-3.7-2l-10-15.7c-0.9-1.4-0.9-3.1-0.1-4.5
			l8.3-14.9c1.6-2.9-0.5-6.5-3.8-6.5h-1.3c-1.6,0-3.1,0.9-3.9,2.3l-6.8,13c-0.8,1.4-2.2,2.3-3.9,2.3H159c-1.5,0-2.9-0.8-3.7-2.1
			l-9-14.6C145.4,97.4,145.4,95.7,146.1,94.3z"/>
	</g>
	<path id="XMLID_87_" class="st1" d="M152.8,97.9c1.2,1,0-0.1,4.9,7.8l2.3,3.7c0.2,0.3,0.6,0.5,1,0.5l0,0c0.5,0,4.1,0,7.7,0
		c2.2,0,4.3,0.3,5.9,0.3l-7-12.2h-14.8V97.9z"/>
	<path id="XMLID_86_" class="st1" d="M176.4,76.9c0.4-0.7,1.1-1.1,1.8-1.1c0,0,0,0,0.1,0h53.5c-0.8-2-1.7-3.2-2.9-5.2
		c-1.5-2.6-3.3-5.5-4.2-7.1c-2.8,0-32.3,0.2-36.2,0c-0.9,0-1.9-0.7-2.4-1.5c-0.9-1.4,0.7-3.3,1.4-4.6c0.9-1.6,1.8-3.3,2.7-4.9
		c2.6-4.6,5.1-9.1,7.7-13.7c2.4-4.3,4.8-8.6,7.2-12.8c0.9-1.6,1.8-3.2,2.7-4.8h-14c-0.1,0-0.6,0.4-0.9,1C192.5,23,159.5,84,153.1,94
		h14.6L176.4,76.9z"/>
	<path id="XMLID_85_" class="st1" d="M235.4,73.5l7.2-13.4l-7.1-12.6c-1.7,3.1-5.8,10.6-7.3,13.4c0.8,1.4,2.3,4,4.3,7.4
		C233.5,70.2,234.6,72,235.4,73.5z"/>
	<path id="XMLID_84_" class="st1" d="M205.6,58.9L218.3,36c0.2-0.4,0.2-0.8,0.1-1c-0.3-0.6-3.6-5.9-5.8-9.6l-1.3-2.1l-19.9,35.6
		L205.6,58.9z"/>
	<path id="XMLID_83_" class="st1" d="M208.3,96.5c-2.4,4.3-12.2,21.9-12.7,22.9c-0.2,0.4-0.2,0.8-0.1,1c0.3,0.5,3.2,5.2,5.4,8.9
		c0.7,1.1,1.3,2.1,1.7,2.9l19.9-35.7H208.3z"/>
	<path id="XMLID_82_" class="st1" d="M253.8,46.1c-0.2-0.3-0.6-0.6-1-0.6l-13.6-0.1l7,12.4H261c-1.1-1-3-4.8-4.6-7.5
		C255.2,48.2,254,46.5,253.8,46.1z"/>
	<path id="XMLID_81_" class="st1" d="M171.2,95.2l7.1,12.6c1.5-2.9,5-9.4,7.2-13.6l-7.2-12.4L171.2,95.2z"/>
	<path id="XMLID_80_" class="st1" d="M237.4,77.9c-0.3,0.6-0.8,1.3-1.4,1.6c-0.9,0.5-7.5,0.4-10.7,0.4c-1.6,0-3.2,0-4.9,0
		c-1.8,0-3.6,0-5.3,0c-1.9,0-3.7,0-5.6,0c-1.9,0-3.7,0-5.6,0c-1.8,0-3.6,0-5.4,0c-1.7,0-3.3,0-5,0c-1.5,0-2.9,0-4.4,0
		c-1.2,0-2.4,0-3.5,0c-0.8,0-1.6,0-2.5,0c-0.4,0-0.8,0-1.2,0c0,0,0,0-0.1,0l7.3,12.3l36.9-0.4c0.7,0,1.4,0.6,1.8,1.2
		c0.4,0.6,0.4,1.8,0,2.4l-22,40.4c2,0,8.7,0,8.7,0h5.6c0.1,0,40.7-75,40.7-75h-14.6C246.3,60.9,237.4,77.9,237.4,77.9z"/>
</g>
<path id="XMLID_123_" class="st0" d="M266.2,115.5c-4.6-1.5-9.5-2.3-14.3-3c-1.5,2.7-3,5.5-4.5,8.2c11.4-0.4,22.4,3.1,30.9,10.8
	c11.7,10.6,16.3,24.4,13.2,39.8c-3.1,15.5-12.9,26.4-28.4,31.6c-4,1.3-8.7,2-14.2,2c-20.7,0.1-41.8,0.1-62.2,0.1
	c-15.2,0-30.5,0-45.7-0.1c-19.2-0.1-39.1-0.1-58.6,0.2c-0.2,0-0.4,0-0.6,0c-19.6,0-37.4-13.9-41.5-32.5c-4.5-20.1,4-38.1,22.5-48.2
	c1.4-0.8,2.9-1.3,4.4-1.8c0.9-0.3,1.8-0.6,2.7-1c2.5-1.1,3.4-2.7,2.9-5.1C67.9,95.1,80,66,108.1,56.1c15.2-5.3,31.3-3.6,44.5,3.7
	l4-7.1c-17.3-9.4-38.8-10.7-56.6-1.6c-23.3,11.9-35.2,31-35.2,56.8c0,4.8-1,8-6.3,10.4c-18.7,8.7-30.7,32.2-26.6,52.3
	c5.2,26,25,42.3,51.5,42.5c7.1,0.1,14.3,0.1,21.2,0c4.3,0,8.5,0,12.8,0c0.2,0,2.9-0.2,7.1-0.2c59-0.1,86.7-0.2,89-0.2
	c0.1,0,0.3,0,0.4,0c3.5,0,6.9,0.2,10.4,0.2c7.6,0.1,15.4,0.3,23.1-0.1c7.9-0.4,14.3-1.4,19.6-3.2c20.4-7.1,33.5-25.9,33.3-48
	C300.4,141.1,286.3,122.1,266.2,115.5z"/>
</svg>
