<svg xmlns="http://www.w3.org/2000/svg" xmlns:xlink="http://www.w3.org/1999/xlink" width="200.286" height="50.963" viewBox="0 0 200.286 50.963"><defs><clipPath id="a"><rect width="200.286" height="50.963" fill="#fff"/></clipPath></defs><g clip-path="url(#a)"><path d="M86.449.216H85.8V0h1.567V.216H86.72V2.162h-.27Z" transform="translate(-38.179 1.252)" fill="#119fed"/><path d="M91.138,1.189c0-.324-.054-.649-.054-.919a4.753,4.753,0,0,1-.27.811l-.378,1.027H90.22L89.9,1.081A4.5,4.5,0,0,1,89.679.27a6.206,6.206,0,0,1-.054.973l-.054.919H89.3L89.463,0h.378l.378,1.027a5.02,5.02,0,0,1,.216.7,5.02,5.02,0,0,1,.216-.7L90.976,0h.378l.108,2.162h-.27Z" transform="translate(-39.788 1.252)" fill="#119fed"/><path d="M105.7,44.907a10.411,10.411,0,0,0,5.08,1.459c2.918,0,4.594-1.513,4.594-3.729,0-2.054-1.189-3.243-4.161-4.378-3.567-1.3-5.783-3.135-5.783-6.215,0-3.4,2.81-5.945,7.08-5.945a10.085,10.085,0,0,1,4.864,1.081l-.757,2.324a8.792,8.792,0,0,0-4.161-1.027c-2.972,0-4.161,1.783-4.161,3.3,0,2.054,1.351,3.08,4.378,4.215,3.729,1.459,5.621,3.243,5.621,6.431,0,3.4-2.486,6.323-7.674,6.323A11.188,11.188,0,0,1,105,47.339Z" transform="translate(-48.254 -11.994)" fill="#fff"/><path d="M152.1,38.319h-8.539v7.944h9.512v2.378H140.7V26.7h11.836v2.378h-8.971v6.918H152.1Z" transform="translate(-64.66 -12.27)" fill="#fff"/><path d="M174.4,48.641V26.7h3.081l7.026,11.133a60.872,60.872,0,0,1,3.945,7.134l.054-.054c-.27-2.918-.324-5.621-.324-9.025V26.7h2.648V48.641h-2.864l-6.972-11.133a77.8,77.8,0,0,1-4.107-7.35l-.108.054c.162,2.756.216,5.4.216,9.079v9.4Z" transform="translate(-80.148 -12.27)" fill="#fff"/><path d="M220.2,29.032h-6.7V26.6h16.267v2.432h-6.7V48.6H220.2Z" transform="translate(-98.117 -12.224)" fill="#fff"/><path d="M255.009,26.7V48.641H252.2V26.7Z" transform="translate(-115.902 -12.27)" fill="#fff"/><path d="M270.6,48.641V26.7h3.08l7.026,11.133a60.866,60.866,0,0,1,3.945,7.134l.054-.054c-.27-2.918-.324-5.621-.324-9.025V26.7h2.648V48.641h-2.864l-6.972-11.133a77.774,77.774,0,0,1-4.107-7.35l-.108.054c.162,2.756.216,5.4.216,9.079v9.4Z" transform="translate(-124.358 -12.27)" fill="#fff"/><path d="M325.7,38.319h-8.539v7.944h9.512v2.378H314.3V26.7h11.836v2.378h-9.025v6.918h8.539v2.324Z" transform="translate(-144.441 -12.27)" fill="#fff"/><path d="M348,26.7h2.81V46.263h9.4v2.378H348Z" transform="translate(-159.928 -12.27)" fill="#fff"/><path d="M43.494,10V27.215c0,3.584.326,10.264-2.715,15.423C36.869,49.208,29.755,54.2,22.8,54.8,15.853,54.15,8.739,49.154,4.829,42.583c-3.041-5.1-2.715-11.839-2.715-15.423V10Z" transform="translate(0.285 -7.099)" fill="#090a1a"/><path d="M.773,8.763H44.737V27.269c0,.291,0,.6,0,.932.026,3.793.07,10.142-2.951,15.128a27.956,27.956,0,0,1-8.231,8.707,22.713,22.713,0,0,1-10.7,4.053l-.106.009-.106-.009A22.809,22.809,0,0,1,11.9,52.037a27.9,27.9,0,0,1-8.241-8.712l0,0C.7,38.295.742,31.985.768,28.215c0-.336,0-.652,0-.946Zm41.489,2.475H3.248V27.269c0,.3,0,.623,0,.963-.025,3.514-.066,9.395,2.548,13.83C9.558,48.391,16.362,53.02,22.754,53.614c6.362-.6,13.147-5.227,16.912-11.555l.005-.009c2.66-4.387,2.619-10.3,2.595-13.832,0-.336,0-.653,0-.949Z" transform="translate(0.333 -7.099)" fill="#00b6fa"/><path d="M55.565,64.063l-1.929-1.447a11.893,11.893,0,0,1-1.768,1.5l1.875,1.393v.161a18.884,18.884,0,0,0,4.715-5.359,13.458,13.458,0,0,0,1.393-3.7v-.054A11.854,11.854,0,0,1,58.4,60.312,16.1,16.1,0,0,1,55.565,64.063Z" transform="translate(-22.585 -28.497)" fill="#00b6fa"/><path d="M55.551,64.063l-1.929-1.447a12.147,12.147,0,0,1-1.788,1.515l1.9,1.379v.161a18.884,18.884,0,0,0,4.715-5.359,13.456,13.456,0,0,0,1.393-3.7v-.054a11.854,11.854,0,0,1-1.447,3.751A16.1,16.1,0,0,1,55.551,64.063Z" transform="translate(-22.569 -28.497)" fill="#00b6fa"/><path d="M46.587,75.8a15.12,15.12,0,0,1-6.216,2.143A14.625,14.625,0,0,0,46.587,75.8Z" transform="translate(-17.301 -37.337)" fill="#142d51"/><path d="M46.587,75.8a15.12,15.12,0,0,1-6.216,2.143A14.625,14.625,0,0,0,46.587,75.8Z" transform="translate(-17.301 -37.337)" fill="#fff"/><path d="M24.006,19.775l3.215,2.411h3.7L27.7,19.775Z" transform="translate(-9.78 -11.592)" fill="#00b6fa"/><path d="M24.006,19.775l3.215,2.411h3.7L27.7,19.775Z" transform="translate(-9.78 -11.592)" fill="#00b6fa"/><path d="M16.548,19.776H12.9v8.842L35.732,45.712a19.449,19.449,0,0,0,4.5-6.859c.107-.375.214-.482.429-.482.375,0,.857.482,1.34,1.072v.214a12.506,12.506,0,0,0,.322-1.875V37.3l-20.2-15.111H16.548Z" transform="translate(-4.679 -11.592)" fill="#00b6fa"/><path d="M16.548,19.776H12.9v8.842L35.732,45.712c2.887-2.626,4.495-6.109,4.5-6.859.107-.375.214-.482.429-.482.375,0,.857.482,1.34,1.072v.214a12.506,12.506,0,0,0,.322-1.875V37.3l-20.2-15.111H16.548Z" transform="translate(-4.679 -11.592)" fill="#00b6fa"/><path d="M60.067,54.181c-.214,0-.322.107-.429.482a17.529,17.529,0,0,1-4.5,6.859l1.929,1.447a17.965,17.965,0,0,0,2.894-3.751,12.366,12.366,0,0,0,1.447-3.751v-.214C60.924,54.663,60.442,54.181,60.067,54.181Z" transform="translate(-24.087 -27.403)" fill="#00b6fa"/><path d="M60.067,54.181c-.214,0-.322.107-.429.482a17.529,17.529,0,0,1-4.5,6.859l1.929,1.447a17.965,17.965,0,0,0,2.894-3.751,12.366,12.366,0,0,0,1.447-3.751v-.214C60.924,54.663,60.442,54.181,60.067,54.181Z" transform="translate(-24.087 -27.403)" fill="#00b6fa"/><path d="M60.067,54.181c-.214,0-.322.107-.429.482a17.529,17.529,0,0,1-4.5,6.859l1.929,1.447a17.965,17.965,0,0,0,2.894-3.751,12.366,12.366,0,0,0,1.447-3.751v-.214C60.924,54.663,60.442,54.181,60.067,54.181Z" transform="translate(-24.087 -27.403)" fill="#00b6fa"/><path d="M19.646,19.775v2.411h5.573L22,19.775Z" transform="translate(-7.777 -11.592)" fill="#00b6fa"/><path d="M19.646,19.775v2.411h5.573L22,19.775Z" transform="translate(-7.777 -11.592)" fill="#00b6fa"/><path d="M19.646,19.775v2.411h5.573L22,19.775Z" transform="translate(-7.777 -11.592)" fill="#00b6fa"/><path d="M53.462,19.775H51.1v2.411H36.8L53.462,34.672v-14.9Z" transform="translate(-15.659 -11.592)" fill="#00b6fa"/><path d="M53.462,19.775H51.1v2.411H36.8L53.462,34.672v-14.9Z" transform="translate(-15.659 -11.592)" fill="#00b6fa"/><path d="M48.37,19.775H30.848l3.215,2.411H48.37Z" transform="translate(-12.925 -11.592)" fill="#00b6fa"/><path d="M48.37,19.775H30.848l3.215,2.411H48.37Z" transform="translate(-12.925 -11.592)" fill="#00b6fa"/><path d="M48.37,19.775H30.848l3.215,2.411H48.37Z" transform="translate(-12.925 -11.592)" fill="#00b6fa"/><path d="M51.974,75.7c-.054,0-.054.054-.107.054A.166.166,0,0,0,51.974,75.7Z" transform="translate(-22.585 -37.291)" fill="#142d51"/><path d="M51.974,75.7c-.054,0-.054.054-.107.054A.166.166,0,0,0,51.974,75.7Z" transform="translate(-22.585 -37.291)" fill="#fff"/><path d="M28.543,59.655a13.34,13.34,0,0,0,5.466-2.411L12.9,41.489v.75c0,2.572-.214,7.448,1.983,11.146A18.19,18.19,0,0,0,25.81,61.852C25.06,61.048,25.489,60.19,28.543,59.655Z" transform="translate(-4.672 -21.571)" fill="#00b6fa"/><path d="M28.543,59.655a10.264,10.264,0,0,0,5.466-2.411L12.9,41.489v.75c0,2.572-.214,7.448,1.983,11.146A18.19,18.19,0,0,0,25.81,61.852C25.06,61.048,25.489,60.19,28.543,59.655Z" transform="translate(-4.672 -21.571)" fill="#00b6fa"/><path d="M44.719,70.641a13.032,13.032,0,0,1-5.466,2.411c-3.054.536-3.483,1.393-2.733,2.2a2.69,2.69,0,0,0,.643.107,10.735,10.735,0,0,0,1.286.214,15.389,15.389,0,0,0,6.216-2.143c.054,0,.054-.054.107-.054a4.466,4.466,0,0,0,.643-.429c.429-.268.8-.589,1.232-.857v-.054Z" transform="translate(-15.384 -34.967)" fill="#00b6fa"/><path d="M44.719,70.641a13.032,13.032,0,0,1-5.466,2.411c-3.054.536-3.483,1.393-2.733,2.2a2.69,2.69,0,0,0,.643.107,10.735,10.735,0,0,0,1.286.214,15.389,15.389,0,0,0,6.216-2.143c.054,0,.054-.054.107-.054a4.466,4.466,0,0,0,.643-.429c.429-.268.8-.619,1.232-.887v-.024Z" transform="translate(-15.384 -34.967)" fill="#00b6fa"/><path d="M44.719,70.641a13.032,13.032,0,0,1-5.466,2.411c-3.054.536-3.483,1.393-2.733,2.2a2.69,2.69,0,0,0,.643.107,10.735,10.735,0,0,0,1.286.214,15.389,15.389,0,0,0,6.216-2.143c.054,0,.054-.054.107-.054a4.466,4.466,0,0,0,.643-.429c.429-.268.8-.619,1.232-.887v-.024Z" transform="translate(-15.384 -34.967)" fill="#00b6fa"/></g></svg>