<svg xmlns="http://www.w3.org/2000/svg" width="119.164" height="51.963" viewBox="0 0 119.164 51.963"><g transform="translate(0 0)"><g transform="translate(0 0)"><path d="M25.684,0A25.827,25.827,0,0,0,11.627,4.336l.951,1.2A24.474,24.474,0,1,1,5.54,12.577l-1.2-.951A25.975,25.975,0,1,0,25.684,0" transform="translate(0 0)" fill="#7f8c8d" fill-rule="evenodd"/><path d="M19.161,16.614a2.547,2.547,0,1,1-2.547-2.547,2.547,2.547,0,0,1,2.547,2.547" transform="translate(-8.463 -8.463)" fill="#1ed660" fill-rule="evenodd"/><path d="M53.625,45.984v7.642H45.984a7.642,7.642,0,1,1,7.642-7.642M46.08,33.248a12.736,12.736,0,1,0-.1,25.472H58.72V46.144a12.84,12.84,0,0,0-12.64-12.9" transform="translate(-20.002 -20.002)" fill="#1ed660" fill-rule="evenodd"/><g transform="translate(61.538 4.813)"><path d="M99.752,40.773V33.016A7.877,7.877,0,1,0,92,40.773Zm-7.876-21A13.126,13.126,0,0,1,105,32.9V46.023H91.876a13.127,13.127,0,1,1,0-26.253Z" transform="translate(-47.377 -11.894)" fill="#1ed660" fill-rule="evenodd"/><path d="M58.98,46.023H64.23V19.77H58.98Z" transform="translate(-35.483 -11.894)" fill="#1ed660" fill-rule="evenodd"/><path d="M64.23,2.626A2.625,2.625,0,1,1,61.6,0,2.625,2.625,0,0,1,64.23,2.626" transform="translate(-35.483 0)" fill="#1ed660" fill-rule="evenodd"/><path d="M3.546,37.887a11.592,11.592,0,0,0,3.5,2.651,9.049,9.049,0,0,0,4.01,1.059,5.544,5.544,0,0,0,3.428-.978,2.756,2.756,0,0,0,1.354-2.126,2.417,2.417,0,0,0-.8-1.911,4.626,4.626,0,0,0-2.3-.995L9.814,35q-4.854-.963-6.726-2.649a5.72,5.72,0,0,1-1.853-4.518,7.585,7.585,0,0,1,2.593-5.72,9.633,9.633,0,0,1,6.884-2.343,14.069,14.069,0,0,1,4.8.859,18.675,18.675,0,0,1,4.693,2.66L18.7,25.2l-1.441,1.824A11.082,11.082,0,0,0,13.9,24.839a8.731,8.731,0,0,0-3.07-.641,5.581,5.581,0,0,0-3.105.827A2.607,2.607,0,0,0,6.4,27.305Q6.382,29.364,9.5,29.953l5.2,1.068Q21.039,32.3,21,37.708a7.685,7.685,0,0,1-.615,2.9,8.39,8.39,0,0,1-1.853,2.714,8.777,8.777,0,0,1-3.212,1.984,12.7,12.7,0,0,1-4.542.713A16.024,16.024,0,0,1,0,41.567Z" transform="translate(0 -11.894)" fill="#1ed660" fill-rule="evenodd"/></g></g></g></svg>